<?xml version="1.0" encoding="UTF-8" standalone="no"?>
<!-- Created with Inkscape (http://www.inkscape.org/) -->

<svg
   xmlns:dc="http://purl.org/dc/elements/1.1/"
   xmlns:cc="http://creativecommons.org/ns#"
   xmlns:rdf="http://www.w3.org/1999/02/22-rdf-syntax-ns#"
   xmlns:svg="http://www.w3.org/2000/svg"
   xmlns="http://www.w3.org/2000/svg"
   xmlns:sodipodi="http://sodipodi.sourceforge.net/DTD/sodipodi-0.dtd"
   xmlns:inkscape="http://www.inkscape.org/namespaces/inkscape"
   width="100mm"
   height="110mm"
   viewBox="0 0 100 110"
   version="1.1"
   id="svg4585"
   inkscape:version="0.92.3 (3ce5693, 2018-03-11)"
   sodipodi:docname="security-camera.svg">
  <defs
     id="defs4579">
    <clipPath
       id="clipPath20"
       clipPathUnits="userSpaceOnUse">
      <path
         id="path18"
         d="M 0,470 H 380 V 0 H 0 Z"
         inkscape:connector-curvature="0" />
    </clipPath>
  </defs>
  <sodipodi:namedview
     id="base"
     pagecolor="#ffffff"
     bordercolor="#666666"
     borderopacity="1.0"
     inkscape:pageopacity="0.0"
     inkscape:pageshadow="2"
     inkscape:zoom="0.98994949"
     inkscape:cx="471.55386"
     inkscape:cy="474.50742"
     inkscape:document-units="mm"
     inkscape:current-layer="layer1"
     showgrid="false"
     inkscape:window-width="2493"
     inkscape:window-height="1376"
     inkscape:window-x="2627"
     inkscape:window-y="27"
     inkscape:window-maximized="1" />
  <metadata
     id="metadata4582">
    <rdf:RDF>
      <cc:Work
         rdf:about="">
        <dc:format>image/svg+xml</dc:format>
        <dc:type
           rdf:resource="http://purl.org/dc/dcmitype/StillImage" />
        <dc:title></dc:title>
      </cc:Work>
    </rdf:RDF>
  </metadata>
  <g
     inkscape:label="Layer 1"
     inkscape:groupmode="layer"
     id="layer1"
     transform="translate(0,-187)">
    <g
       transform="matrix(2.5445514,0,0,-2.2592353,4.6568354,293.95885)"
       id="g10">
      <g
         transform="scale(0.1)"
         id="g12">
        <g
           id="g14">
          <g
             clip-path="url(#clipPath20)"
             id="g16">
            <path
               id="path22"
               style="fill:#8697cb;fill-opacity:1;fill-rule:nonzero;stroke:none"
               d="M 222.031,54.0391 223.98,55.9883 136.02,184 96.0195,167.98 189.648,27.5195 c 6.563,12.8516 18.243,22.5703 32.383,26.5196 z"
               inkscape:connector-curvature="0" />
            <path
               id="path24"
               style="fill:#8697cb;fill-opacity:1;fill-rule:nonzero;stroke:none"
               d="m 246.949,81.3008 c 1.332,-1.9102 2.461,-3.9414 3.481,-6.0117 0.23,-0.3907 0.429,-0.8203 0.621,-1.25 0.98,-2.0703 1.879,-4.1797 2.539,-6.4102 0.039,-0.0391 0.039,-0.0391 0.039,-0.0391 0.672,-2.2187 1.172,-4.4882 1.57,-6.789 0.11,-0.5508 0.192,-1.1016 0.27,-1.6797 0.312,-2.3125 0.551,-4.6914 0.551,-7.1094 0,-1.2929 -0.079,-2.1914 -0.161,-3.0117 -0.16,-2.8086 -0.507,-5.5508 -1.089,-8.1992 L 376.02,72.0117 V 120.02 Z"
               inkscape:connector-curvature="0" />
            <path
               id="path26"
               style="fill:#556080;fill-opacity:1;fill-rule:nonzero;stroke:none"
               d="m 256.02,52.0117 c 0,-28.7109 -23.29,-51.9921687 -52.04,-51.9921687 -28.71,0 -51.992,23.2812687 -51.992,51.9921687 0,28.7071 23.282,51.9883 51.992,51.9883 28.75,0 52.04,-23.2812 52.04,-51.9883 z"
               inkscape:connector-curvature="0" />
            <path
               id="path28"
               style="fill:#556080;fill-opacity:1;fill-rule:nonzero;stroke:none"
               d="m 151.988,203.57 c 0,-24.34 -19.687,-39.14 -43.976,-39.14 -24.3011,0 -44.0315,14.8 -44.0315,39.14 z"
               inkscape:connector-curvature="0" />
            <path
               id="path30"
               style="fill:#ecf0f1;fill-opacity:1;fill-rule:nonzero;stroke:none"
               d="M 200,200.02 H 26.2109 C 11.7188,200.02 0,211.73 0,226.23 V 437.789 C 0,452.281 11.7188,464 26.2109,464 H 200 c 14.449,0 23.98,-11.719 23.98,-26.211 V 226.23 c 0,-14.5 -9.531,-26.21 -23.98,-26.21 z"
               inkscape:connector-curvature="0" />
            <path
               id="path32"
               style="fill:#8697cb;fill-opacity:1;fill-rule:nonzero;stroke:none"
               d="M 200,352.012 C 200,303.41 160.59,264 111.988,264 c -48.5896,0 -88.0075,39.41 -88.0075,88.012 0,48.59 39.4179,88.008 88.0075,88.008 48.602,0 88.012,-39.418 88.012,-88.008 z"
               inkscape:connector-curvature="0" />
            <path
               id="path34"
               style="fill:#556080;fill-opacity:1;fill-rule:nonzero;stroke:none"
               d="m 111.988,295.988 c -30.8591,0 -55.9685,25.121 -55.9685,56.024 0,30.859 25.1094,55.968 55.9685,55.968 30.903,0 56.024,-25.109 56.024,-55.968 0,-30.903 -25.121,-56.024 -56.024,-56.024 z"
               inkscape:connector-curvature="0" />
            <path
               id="path36"
               style="fill:#e64c3c;fill-opacity:1;fill-rule:nonzero;stroke:none"
               d="m 200,440.02 c 0,-4.461 -3.59,-8.008 -8.012,-8.008 -4.41,0 -8.008,3.547 -8.008,8.008 0,4.41 3.598,7.96 8.008,7.96 4.422,0 8.012,-3.55 8.012,-7.96 z"
               inkscape:connector-curvature="0" />
            <path
               id="path38"
               style="fill:#d1d4d1;fill-opacity:1;fill-rule:nonzero;stroke:none"
               d="M 191.988,200.02 H 31.9883 v 16.558 c 0,12.934 10.4726,23.442 23.4023,23.442 H 168.59 c 12.93,0 23.398,-10.508 23.398,-23.442 z"
               inkscape:connector-curvature="0" />
            <path
               id="path40"
               style="fill:#d0e8f9;fill-opacity:1;fill-rule:nonzero;stroke:none"
               d="m 80,344 c -4.4102,0 -8.0117,3.59 -8.0117,8.012 0,22.027 17.9726,40 39.9997,40 4.422,0 8.012,-3.602 8.012,-8.012 0,-4.41 -3.59,-8.012 -8.012,-8.012 -13.238,0 -23.9763,-10.738 -23.9763,-23.976 C 88.0117,347.59 84.4102,344 80,344 Z"
               inkscape:connector-curvature="0" />
          </g>
        </g>
      </g>
    </g>
  </g>
</svg>
